<svg xmlns="http://www.w3.org/2000/svg" xmlns:xlink="http://www.w3.org/1999/xlink" width="1650.148" height="594.741" viewBox="0 0 1650.148 594.741">
  <defs>
    <clipPath id="clip-path">
      <rect id="Rect치ngulo_23" data-name="Rect치ngulo 23" width="1650.148" height="594.741" fill="none"/>
    </clipPath>
  </defs>
  <g id="Grupo_583" data-name="Grupo 583" transform="translate(0 -1877)">
    <g id="Grupo_582" data-name="Grupo 582" transform="translate(0 1877)" clip-path="url(#clip-path)">
      <g id="Grupo_581" data-name="Grupo 581" transform="translate(-189.194 10.884)">
        <rect id="Rect치ngulo_22" data-name="Rect치ngulo 22" width="1651.867" height="263.852" transform="translate(186.186 320.435)" fill="#0f0829"/>
        <path id="Trazado_5" data-name="Trazado 5" d="M2016.3,2118.726l-49.033,47.119-116.63-123.628-22.393,27.525-73.71-97.97,67.179,97.97-64.38-63.448v-22.86l-25.192-7,22.393-4.665-22.393-1.866-3.732,21.46-18.661-7.931-23.825,22.86,12.629-31.723-25.258-27.058v-38.254l58.847,60.647-36.388-56.915-5.6,4.665-16.86-27.992-82.042,86.773L1550.2,1958.71l-22.393,54.116-45.719,7.464-60.647,106.367-26.842-7.931-45,54.583L1344,2209.7h731.5Zm-460.5-146.954,32.19,11.663-39.653,29.391Zm-15.861,78.842-8.4,19.128,7.464-28.458s10.264-12,15.862-9.8,11.2-25.192,11.2-25.192l21.926-4.665-17.261,11.2-14,28.457Zm48.051,58.315-21.926,23.326,15.862-31.723,25.192-12.129-11.2,12.129,16.795,18.195Zm30.324-39.187,28.924-38.255-9.33,23.093Zm28.924,18.66,41.054-47.119,8.4-20.527,6.032,20.527Zm110.1-75.576,56.916,56.916-56.916-42.92Zm75.576,84.441-18.66,21.459,22.393-40.588Zm9.039,29.391,18.92-38.255s-15.829-14-18.629-18.66,15.439-20.061,15.439-20.061l-1.122,20.061,14.608,23.792Z" transform="translate(0.298 -1889.664)" fill="#0f0829"/>
        <path id="Trazado_6" data-name="Trazado 6" d="M402.113,2218.506l-87.88-107.724-49.137-43.94L201.508,2027.1l21.227,19.9,55.118,36.853-43.468-14.49-27.4,1.733v-28.821l-27.4-27.167-19.844,27.167V1987.94l34.217,32.077-39.887-55.228L119.1,1994.554,73.745,1949.2l-28.585,9.922-54.1-55.279-38.742,38.27-51.972,99.219h-60l-60.476,58.114s1.417,143.159,0,143.159S402.113,2218.506,402.113,2218.506Zm-108.2-95.44,8.5-17.954,8.5,13.7-7.56,13.938-9.449,25.749Zm-114.338-35.435L189.028,2047l16.537,30.238,25.986,6.615-27.194,6.222-2.1,20.708,12.284,26.931-17.954-4.961-3.78,12.756-13.229,17.718,5.22-40.16,8.008-8.032v-31.183Zm-158.75,75.595-26.459-40.16,3.78-25.986,9.45,19.843,26.458,28.584H16.1ZM100.2,1990.3l-9.214,27.4-4.014-32.128-10.867-4.724-6.614-22.679ZM7.6,2042.274l17.009-55.752L-7.52,1944v-26.458l58.587,51.027-3.78,32.127,12.284,41.578L39.727,2022.9,28.2,2047s38.926,34.963,41.289,34.963,0,46.3,0,46.3L53.9,2106.53l-14.174-33.309L17.994,2047,7.6,2099.916l-21.734-36.853ZM-32.088,2022.9v35.435L-47.207,2036.6l-3.78-46.3C-48.152,1990.3-32.088,2022.9-32.088,2022.9Zm-27.4,35.435,17.954,6.614-17.954,18.9Zm-85.99-7.56,10.394,22.443s2.834,11.575,0,14.411-28.821-14.411-28.821-14.411Z" transform="translate(220.134 -1891.656)" fill="#0f0829"/>
        <path id="Trazado_7" data-name="Trazado 7" d="M1311.875,2174.567l-21.752,15.447-69.984-37.435-27.741-35.7-7.566,13.871-23.959-30.578v-32.785l36.569,27.966,7.566,28.778,14.885,11.521-11.1-38-54.852-39.09-11.348,20.806-12.3-37.83L1118,2045.318l-29.639-21.876s35.313,30.073,37.2,30.073h-8.827v42.873l-10.718-1.892,10.718,29.633-2.522,3.152v22.7l-34.046-81.333,8.191-18.915v-26.29L1078.279,2016l-30.263,38.775v23.643l-32.155,28.688-48.233,23.643-39.72,63.995-40.666,8.827L874,2225.242l161.72,35.7,401.935-30.894Zm-261.337,39.563c-1.891,2.049-10.718,15.92-10.718,15.92l-32.785-41.612,8.2-22.382,22.067,33.416,39.721,27.426S1052.429,2212.081,1050.538,2214.13Zm171.927-45.983,27.938,21.867-18.915-6.936,15.131,19.86s-20.176-9.457-21.121-8.2-26.165-34.677-26.165-34.677l-4.806-26.709Zm-93.116-108.329,8.827,18.285s1.892,19.545,0,17.022-12.386-25.85-12.386-25.85Zm3.055,106.238v-20.491l6.613,4.413-3.363-42.873,14.5,48.547-3.152,10.4,5.674,11.348,13.555,20.648-23.17-20.648Zm63.147,57.768-29.318,6.226-5.359-15.92s18.285,5.831,20.176,5.831,11.98-5.831,11.98-5.831l69.984,19.388Zm167.078,6.226-47.6-30.578-6.462-22.067,31.366,10.876,67.147,35.543-62.47-29.082s25.587,21.437,30.945,22.067-19.229.631-19.229.631Z" transform="translate(66.355 -1907.42)" fill="#0f0829"/>
        <path id="Trazado_8" data-name="Trazado 8" d="M834,2234.989l32.355-59.729h12.084l25.728-26.3,20.66,13.818,38.982-57.946,12.084,2.674,35.474-37.442,11.695,2.674,9.356-12.077,23,27.232,9.746.892,37.423,54.38,8.966-.892,15.593,18.275,38.982-2.229,49.332,61.958,29.021-3.12,19.881,28.081Z" transform="translate(71.978 -1913.698)" fill="#0f0829" opacity="0.3"/>
        <path id="Trazado_9" data-name="Trazado 9" d="M407.172,2272.989l37-59.729h13.818l29.419-26.3,23.624,13.818,44.574-57.946,13.818,2.674,40.562-37.442,13.372,2.674,10.7-12.077,26.3,27.232,11.143.892,42.791,54.38,10.252-.892,17.83,18.275,44.574-2.229,56.409,61.958,33.184-3.12,22.733,28.081Z" transform="translate(131.967 -1919.038)" fill="#0f0829" opacity="0.3"/>
        <path id="Trazado_10" data-name="Trazado 10" d="M497.172,2232.889l37-51.013h13.818l29.419-22.461,23.624,11.8,44.574-49.491,13.818,2.284,40.562-31.979,13.372,2.284,10.7-10.315,26.3,23.259,11.143.761,42.791,46.445,10.252-.761,17.83,15.609,44.574-1.9,56.409,52.917,33.184-2.665,22.733,23.984Z" transform="translate(119.318 -1916.977)" fill="#0f0829" opacity="0.2"/>
        <path id="Trazado_11" data-name="Trazado 11" d="M226.172,2218.462l34.687-69.369h12.955L301.4,2118.55l22.15,16.048,41.792-67.3,12.955,3.106,38.03-43.485,12.537,3.106L438.89,2016l24.657,31.627L474,2048.663l40.12,63.157,9.612-1.035,16.717,21.225,41.792-2.588,52.888,71.958,31.113-3.624,21.314,32.614Z" transform="translate(157.407 -1907.42)" fill="#0f0829" opacity="0.2"/>
        <path id="Trazado_12" data-name="Trazado 12" d="M732.172,2232.5l37-66.31h13.818L812.4,2137l23.624,15.341,44.574-64.331,13.818,2.969,40.562-41.567,13.372,2.969,10.7-13.408,26.3,30.233,11.143.99,42.791,60.372,10.252-.99,17.83,20.289,44.574-2.474,56.409,68.784,33.184-3.464,22.733,31.176Z" transform="translate(86.289 -1910.649)" fill="#0f0829" opacity="0.2"/>
        <path id="Trazado_13" data-name="Trazado 13" d="M1093.172,2217.749l37-71.038h13.818l29.419-31.278,23.624,16.434,44.574-68.917,13.818,3.181,40.562-44.531,13.372,3.181,10.7-14.364,26.3,32.388,11.143,1.06,42.791,64.677,10.252-1.06,17.829,21.736,44.574-2.651,56.409,73.689,33.184-3.711,22.733,33.4Z" transform="translate(35.552 -1906.635)" fill="#0f0829" opacity="0.2"/>
        <path id="Trazado_14" data-name="Trazado 14" d="M1221.172,2217.989l37-59.729h13.818l29.419-26.3,23.624,13.818,44.574-57.946,13.818,2.674,40.562-37.442,13.372,2.674,10.7-12.077,26.3,27.232,11.143.891,42.791,54.38,10.252-.891,17.83,18.275,44.574-2.229,56.409,61.958,33.184-3.12,22.733,28.082Z" transform="translate(17.561 -1911.308)" fill="#0f0829" opacity="0.3"/>
        <path id="Trazado_15" data-name="Trazado 15" d="M62.172,2182.989l37-59.729h13.818l29.419-26.3,23.624,13.818,44.574-57.946,13.818,2.674,40.562-37.442,13.372,2.674,10.7-12.077,26.3,27.232,11.143.891,42.791,54.38,10.252-.892,17.83,18.275,44.574-2.229,56.409,61.958,33.184-3.12,22.733,28.082Z" transform="translate(180.456 -1906.389)" fill="#0f0829" opacity="0.3"/>
        <path id="Trazado_16" data-name="Trazado 16" d="M637.438,2245.969l41.039-40.941h26.077l61.986-74.6h23.511s32.489-45.034,33.771-42.3,24.794,27.294,24.794,27.294l14.535,5.914,44.886,70.509,34.2,5.459,31.207,44.125,33.771-27.521,37.191,45.262H731.913Z" transform="translate(99.604 -1917.54)" fill="#0f0829" opacity="0.48"/>
        <g id="Grupo_580" data-name="Grupo 580" transform="translate(348.683 232.498)">
          <g id="Grupo_579" data-name="Grupo 579" transform="translate(0)">
            <g id="Grupo_574" data-name="Grupo 574">
              <path id="Trazado_17" data-name="Trazado 17" d="M185.57,2251.375l176.6-54.281,61.519,36.188,26.055-15.923,67.309,11.58,41.254-23.884,23.16,13.028,110.734-57.9,97.681,45.6,9.434-13.028,171.529,58.624-3.619,24.607-781.651-15.2Z" transform="translate(-185.57 -2160.182)" fill="#0f0829"/>
            </g>
            <g id="Grupo_575" data-name="Grupo 575" transform="translate(612.293 39.806)">
              <path id="Trazado_18" data-name="Trazado 18" d="M897.993,2206.5l15.923,32.569,121.59,11.942Z" transform="translate(-897.993 -2206.498)" fill="#0f0829"/>
            </g>
            <g id="Grupo_576" data-name="Grupo 576" transform="translate(510.006 6.875)">
              <path id="Trazado_19" data-name="Trazado 19" d="M779.012,2168.182c-1.242,2.534,32.774,32.931,32.774,32.931v-10.132l61.494,28.226Z" transform="translate(-778.978 -2168.182)" fill="#0f0829"/>
            </g>
            <g id="Grupo_577" data-name="Grupo 577" transform="translate(271.407 62.062)">
              <path id="Trazado_20" data-name="Trazado 20" d="M501.361,2232.393l23.884,25.512,49.939-7.238Z" transform="translate(-501.361 -2232.393)" fill="#0f0829"/>
            </g>
            <g id="Grupo_578" data-name="Grupo 578" transform="translate(140.408 44.149)">
              <path id="Trazado_21" data-name="Trazado 21" d="M386.574,2211.551l49.939,36.188-87.574-5.519,15.923-16.917,18.818,4.342Z" transform="translate(-348.939 -2211.551)" fill="#0f0829"/>
            </g>
          </g>
        </g>
      </g>
    </g>
  </g>
</svg>
