<svg id="Grupo_588" data-name="Grupo 588" xmlns="http://www.w3.org/2000/svg" width="125.3" height="125.3" viewBox="0 0 125.3 125.3">
  <g id="Grupo_587" data-name="Grupo 587">
    <circle id="Elipse_67" data-name="Elipse 67" cx="62.65" cy="62.65" r="62.65" fill="#f2e9d3" opacity="0.25"/>
    <ellipse id="Elipse_68" data-name="Elipse 68" cx="6.721" cy="5.121" rx="6.721" ry="5.121" transform="translate(103.453 69.58)" fill="#e0bf94" opacity="0.3"/>
    <circle id="Elipse_69" data-name="Elipse 69" cx="57.037" cy="57.037" r="57.037" transform="translate(5.613 5.613)" fill="#f2e9d3" stroke="#e0bf94" stroke-miterlimit="10" stroke-width="5"/>
    <circle id="Elipse_70" data-name="Elipse 70" cx="8.962" cy="8.962" r="8.962" transform="translate(11.967 25.754)" fill="#e0bf94"/>
    <circle id="Elipse_71" data-name="Elipse 71" cx="9.922" cy="9.922" r="9.922" transform="translate(21.569 86.566)" fill="#e0bf94"/>
    <circle id="Elipse_72" data-name="Elipse 72" cx="6.081" cy="6.081" r="6.081" transform="translate(62.538 101.289)" fill="#e0bf94"/>
    <circle id="Elipse_73" data-name="Elipse 73" cx="10.882" cy="10.882" r="10.882" transform="translate(58.057 25.754)" fill="#e0bf94"/>
    <circle id="Elipse_74" data-name="Elipse 74" cx="13.763" cy="13.763" r="13.763" transform="translate(62.538 86.566)" fill="#e0bf94" opacity="0.53"/>
    <circle id="Elipse_75" data-name="Elipse 75" cx="6.721" cy="6.721" r="6.721" transform="translate(4.926 53.919)" fill="#e0bf94" opacity="0.53"/>
    <circle id="Elipse_76" data-name="Elipse 76" cx="6.721" cy="6.721" r="6.721" transform="translate(56.136 49.438)" fill="#e0bf94" opacity="0.53"/>
    <circle id="Elipse_77" data-name="Elipse 77" cx="10.242" cy="10.242" r="10.242" transform="translate(88.143 43.677)" fill="#e0bf94" opacity="0.3"/>
    <circle id="Elipse_78" data-name="Elipse 78" cx="10.242" cy="10.242" r="10.242" transform="translate(95.184 72.483)" fill="#e0bf94" opacity="0.53"/>
    <circle id="Elipse_79" data-name="Elipse 79" cx="8.642" cy="8.642" r="8.642" transform="translate(27.651 47.838)" fill="none" stroke="#e0bf94" stroke-miterlimit="10" stroke-width="3"/>
    <circle id="Elipse_80" data-name="Elipse 80" cx="4.161" cy="4.161" r="4.161" transform="translate(44.934 91.367)" fill="none" stroke="#e0bf94" stroke-miterlimit="10" stroke-width="3"/>
    <circle id="Elipse_81" data-name="Elipse 81" cx="4.161" cy="4.161" r="4.161" transform="translate(108.947 42.077)" fill="none" stroke="#e0bf94" stroke-miterlimit="10" stroke-width="3"/>
    <circle id="Elipse_82" data-name="Elipse 82" cx="5.121" cy="5.121" r="5.121" transform="translate(89.743 90.087)" fill="none" stroke="#e0bf94" stroke-miterlimit="10" stroke-width="3"/>
    <circle id="Elipse_83" data-name="Elipse 83" cx="3.841" cy="3.841" r="3.841" transform="translate(74.38 68.322)" fill="none" stroke="#e0bf94" stroke-miterlimit="10" stroke-width="2"/>
    <ellipse id="Elipse_84" data-name="Elipse 84" cx="6.401" cy="5.441" rx="6.401" ry="5.441" transform="translate(35.012 11.03)" fill="none" stroke="#e0bf94" stroke-miterlimit="10" stroke-width="2"/>
  </g>
  <path id="Trazado_29" data-name="Trazado 29" d="M385.076,1154.568a46.573,46.573,0,0,1,7.62,18.481c5.566,31.995-23.9,64.169-66.8,74.423a57.045,57.045,0,0,0,59.18-92.9Z" transform="translate(-280.686 -1130.355)" fill="#e0bf94" opacity="0.59"/>
  <path id="Trazado_30" data-name="Trazado 30" d="M346.612,1132.075a53.407,53.407,0,0,1,12.852,26.28c5.434,31.241-18.717,62.327-55.887,75.276a57.038,57.038,0,1,0,43.035-101.556Z" transform="translate(-276.224 -1125.857)" fill="#e0bf94" opacity="0.23"/>
  <ellipse id="Elipse_85" data-name="Elipse 85" cx="24.005" cy="16.457" rx="24.005" ry="16.457" transform="translate(12.977 30.706) rotate(-32.358)" fill="#fffff3" opacity="0.54"/>
  <ellipse id="Elipse_86" data-name="Elipse 86" cx="6.096" cy="6.207" rx="6.096" ry="6.207" transform="translate(10.827 60.041) rotate(-71.029)" fill="#fffff3" opacity="0.54"/>
  <ellipse id="Elipse_87" data-name="Elipse 87" cx="12.15" cy="8.543" rx="12.15" ry="8.543" transform="translate(29.406 20.465) rotate(-22.535)" fill="#fffff3" opacity="0.62"/>
</svg>
