<svg xmlns="http://www.w3.org/2000/svg" width="77.839" height="77.839" viewBox="0 0 77.839 77.839">
  <g id="insta" transform="translate(1 1)">
    <path id="Trazado_106" data-name="Trazado 106" d="M361.516,264.258A7.258,7.258,0,1,1,354.258,257a7.251,7.251,0,0,1,7.258,7.258Zm0,0" transform="translate(-316.338 -226.338)" fill="#dabb92"/>
    <path id="Trazado_107" data-name="Trazado 107" d="M310.239,190.421a7.219,7.219,0,0,0-4.133-4.133,12.291,12.291,0,0,0-4.044-.755c-2.3-.1-2.992-.133-8.8-.133s-6.5.015-8.8.133a12.291,12.291,0,0,0-4.044.755,7.218,7.218,0,0,0-4.133,4.133,12.291,12.291,0,0,0-.755,4.044c-.1,2.3-.133,2.977-.133,8.8s.03,6.5.133,8.8a11.9,11.9,0,0,0,.755,4.044,7.218,7.218,0,0,0,4.133,4.133,12.292,12.292,0,0,0,4.044.755c2.3.1,2.977.133,8.8.133s6.5-.015,8.8-.133a11.9,11.9,0,0,0,4.044-.755,7.19,7.19,0,0,0,4.133-4.133,12.293,12.293,0,0,0,.755-4.044c.1-2.3.133-2.992.133-8.8s-.015-6.5-.133-8.8a12.293,12.293,0,0,0-.755-4.044Zm-16.975,24.026a11.183,11.183,0,1,1,11.183-11.183,11.183,11.183,0,0,1-11.183,11.183Zm11.628-20.189a2.607,2.607,0,1,1,2.607-2.607,2.611,2.611,0,0,1-2.607,2.607Zm0,0" transform="translate(-255.344 -165.344)" fill="none" stroke="#dabb92" stroke-miterlimit="10" stroke-width="2"/>
    <path id="Trazado_108" data-name="Trazado 108" d="M177.92,50a37.92,37.92,0,1,0,37.92,37.92A37.917,37.917,0,0,0,177.92,50ZM199.56,96.9a16.168,16.168,0,0,1-1.007,5.288,11.1,11.1,0,0,1-6.369,6.369,16.005,16.005,0,0,1-5.288,1.007c-2.326.1-3.066.133-8.976.133s-6.651-.03-8.976-.133a16.168,16.168,0,0,1-5.288-1.007,11.23,11.23,0,0,1-6.369-6.369,16,16,0,0,1-1.007-5.288c-.1-2.326-.133-3.066-.133-8.976s.03-6.651.133-8.976a16.167,16.167,0,0,1,1.007-5.288,11.23,11.23,0,0,1,6.369-6.369,16.086,16.086,0,0,1,5.288-1.007c2.326-.1,3.066-.133,8.976-.133s6.651.03,8.976.133a16.168,16.168,0,0,1,5.288,1.007,11.23,11.23,0,0,1,6.369,6.369,16.086,16.086,0,0,1,1.007,5.288c.1,2.326.133,3.066.133,8.976s-.03,6.651-.133,8.976Zm0,0" transform="translate(-140 -50)" fill="none" stroke="#dabb92" stroke-miterlimit="10" stroke-width="2"/>
  </g>
</svg>
