<svg id="Grupo_607" data-name="Grupo 607" xmlns="http://www.w3.org/2000/svg" xmlns:xlink="http://www.w3.org/1999/xlink" width="306.335" height="273.423" viewBox="0 0 306.335 273.423">
  <defs>
    <clipPath id="clip-path">
      <rect id="Rectángulo_29" data-name="Rectángulo 29" width="306.335" height="273.423" fill="none"/>
    </clipPath>
  </defs>
  <g id="Grupo_606" data-name="Grupo 606" clip-path="url(#clip-path)">
    <g id="Grupo_605" data-name="Grupo 605" transform="translate(36.685 65.621)">
      <g id="Grupo_604" data-name="Grupo 604">
        <ellipse id="Elipse_103" data-name="Elipse 103" cx="91.453" cy="91.453" rx="91.453" ry="91.453" fill="#b3f6ff" opacity="0.23"/>
        <ellipse id="Elipse_104" data-name="Elipse 104" cx="9.955" cy="7.585" rx="9.955" ry="7.585" transform="translate(152.672 102.149)" fill="#e0bf94" opacity="0.3"/>
        <circle id="Elipse_105" data-name="Elipse 105" cx="84.478" cy="84.478" r="84.478" transform="translate(7.207 6.501)" fill="#b23b3b" stroke="#823d44" stroke-miterlimit="10" stroke-width="5"/>
        <rect id="Rectángulo_26" data-name="Rectángulo 26" width="21.673" height="18.112" transform="matrix(0.777, -0.629, 0.629, 0.777, 7.29, 101.219)" fill="#c67761"/>
        <rect id="Rectángulo_27" data-name="Rectángulo 27" width="8.998" height="7.519" transform="matrix(0.777, -0.629, 0.629, 0.777, 30.989, 105.193)" fill="#c67761"/>
        <rect id="Rectángulo_28" data-name="Rectángulo 28" width="13.288" height="10.199" transform="matrix(0.777, -0.629, 0.629, 0.777, 13.12, 125.256)" fill="#c67761"/>
        <path id="Trazado_57" data-name="Trazado 57" d="M674.985,504.827,659.741,486l-21.526,17.425-6.918-8.547h12.609V471.62h-14.48v20.943l-2.576-3.182-9.2,7.447,11.365,14.04-3.7,2.995,15.243,18.831,3.7-2.995,6.664,8.233,9.2-7.447-6.665-8.233Z" transform="translate(-528.468 -369.204)" fill="#c67761"/>
        <path id="Trazado_58" data-name="Trazado 58" d="M669.635,389.557l-15.243-18.831L626.631,393.2V377.643H613.9l-1.51-4.659-5.669,1.837-13.658-16.872-24.33,19.694h-12.8v27.924l-13.48,10.911,30.01,37.074,9.459-7.656,7.577,9.36,34.426-27.867-3.726-4.6h6.43v-15.96l8.578,10.6Z" transform="translate(-516.73 -351.46)" fill="#c67761"/>
        <ellipse id="Elipse_106" data-name="Elipse 106" cx="16.682" cy="16.727" rx="16.682" ry="16.727" transform="translate(31.394 127.307)" fill="#823d44" opacity="0.63"/>
        <ellipse id="Elipse_107" data-name="Elipse 107" cx="9.007" cy="9.007" rx="9.007" ry="9.007" transform="translate(90.795 150.391)" fill="#823d44" opacity="0.63"/>
        <ellipse id="Elipse_108" data-name="Elipse 108" cx="20.384" cy="20.384" rx="20.384" ry="20.384" transform="translate(63.538 123.475)" fill="none" stroke="#823d44" stroke-miterlimit="10" stroke-width="2"/>
        <ellipse id="Elipse_109" data-name="Elipse 109" cx="20.384" cy="20.384" rx="20.384" ry="20.384" transform="translate(19.247 43.409)" fill="none" stroke="#823d44" stroke-miterlimit="10" stroke-width="2"/>
        <ellipse id="Elipse_110" data-name="Elipse 110" cx="12.59" cy="10.79" rx="12.59" ry="10.79" transform="translate(104.311 88.927)" fill="#823d44" opacity="0.63"/>
        <ellipse id="Elipse_111" data-name="Elipse 111" cx="5.35" cy="4.585" rx="5.35" ry="4.585" transform="translate(42.985 33.563)" fill="#823d44"/>
        <ellipse id="Elipse_112" data-name="Elipse 112" cx="6.627" cy="5.68" rx="6.627" ry="5.68" transform="translate(65.13 20.786)" fill="#823d44"/>
        <ellipse id="Elipse_113" data-name="Elipse 113" cx="6.627" cy="5.68" rx="6.627" ry="5.68" transform="translate(49.373 111.498)" fill="#823d44"/>
        <ellipse id="Elipse_114" data-name="Elipse 114" cx="4.073" cy="4.259" rx="4.073" ry="4.259" transform="translate(96.645 84.955)" fill="#823d44"/>
        <ellipse id="Elipse_115" data-name="Elipse 115" cx="2.981" cy="3.117" rx="2.981" ry="3.117" transform="translate(40.483 118.522)" fill="#823d44"/>
        <ellipse id="Elipse_116" data-name="Elipse 116" cx="18.553" cy="16.327" rx="18.553" ry="16.327" transform="translate(125.605 70.188)" fill="#823d44"/>
        <ellipse id="Elipse_117" data-name="Elipse 117" cx="18.553" cy="16.327" rx="18.553" ry="16.327" transform="translate(89.831 9.713)" fill="#823d44" opacity="0.63"/>
        <ellipse id="Elipse_118" data-name="Elipse 118" cx="15.17" cy="15.17" rx="15.17" ry="15.17" transform="translate(139.148 107.727)" fill="#e0bf94" stroke="#e0bf94" stroke-miterlimit="10" stroke-width="1" opacity="0.53"/>
      </g>
      <path id="Trazado_59" data-name="Trazado 59" d="M679.324,391.681a68.991,68.991,0,0,1,11.285,27.373c8.244,47.387-35.4,95.042-98.937,110.229a84.489,84.489,0,0,0,87.651-137.6Z" transform="translate(-524.413 -356.725)" fill="#70202b" opacity="0.64"/>
      <path id="Trazado_60" data-name="Trazado 60" d="M624.072,359.089a79.1,79.1,0,0,1,19.035,38.922c8.049,46.272-27.721,92.313-82.774,111.493a84.48,84.48,0,1,0,63.739-150.415Z" transform="translate(-519.521 -351.637)" fill="#823d44" opacity="0.55"/>
      <ellipse id="Elipse_119" data-name="Elipse 119" cx="35.554" cy="24.375" rx="35.554" ry="24.375" transform="translate(18.667 44.574) rotate(-32.358)" fill="#f2ebb1" opacity="0.41"/>
      <ellipse id="Elipse_120" data-name="Elipse 120" cx="9.028" cy="9.194" rx="9.028" ry="9.194" transform="translate(15.483 88.022) rotate(-71.029)" fill="#f2ebb1" opacity="0.41"/>
      <ellipse id="Elipse_121" data-name="Elipse 121" cx="17.995" cy="12.653" rx="17.995" ry="12.653" transform="translate(43.001 29.406) rotate(-22.535)" fill="#fffff3" opacity="0.43"/>
    </g>
  </g>
</svg>
