<svg id="Grupo_584" data-name="Grupo 584" xmlns="http://www.w3.org/2000/svg" width="125.3" height="125.3" viewBox="0 0 125.3 125.3">
  <g id="Grupo_583" data-name="Grupo 583" transform="translate(0 0)">
    <circle id="Elipse_25" data-name="Elipse 25" cx="62.65" cy="62.65" r="62.65" fill="#ddd5b6" opacity="0.42"/>
    <ellipse id="Elipse_26" data-name="Elipse 26" cx="6.721" cy="5.121" rx="6.721" ry="5.121" transform="translate(103.453 69.58)" fill="#e0bf94" opacity="0.3"/>
    <circle id="Elipse_27" data-name="Elipse 27" cx="57.037" cy="57.037" r="57.037" transform="translate(5.613 5.613)" fill="#454c56" stroke="#303038" stroke-miterlimit="10" stroke-width="5"/>
    <circle id="Elipse_28" data-name="Elipse 28" cx="8.962" cy="8.962" r="8.962" transform="translate(11.967 25.754)" fill="#303038"/>
    <circle id="Elipse_29" data-name="Elipse 29" cx="9.922" cy="9.922" r="9.922" transform="translate(21.569 86.566)" fill="#303038"/>
    <circle id="Elipse_30" data-name="Elipse 30" cx="6.081" cy="6.081" r="6.081" transform="translate(62.538 101.289)" fill="#303038"/>
    <circle id="Elipse_31" data-name="Elipse 31" cx="10.882" cy="10.882" r="10.882" transform="translate(58.057 25.754)" fill="#303038"/>
    <circle id="Elipse_32" data-name="Elipse 32" cx="13.763" cy="13.763" r="13.763" transform="translate(62.538 86.566)" fill="#303038" opacity="0.53"/>
    <circle id="Elipse_33" data-name="Elipse 33" cx="6.721" cy="6.721" r="6.721" transform="translate(4.926 53.919)" fill="#303038" opacity="0.53"/>
    <circle id="Elipse_34" data-name="Elipse 34" cx="6.721" cy="6.721" r="6.721" transform="translate(56.136 49.438)" fill="#303038" opacity="0.53"/>
    <circle id="Elipse_35" data-name="Elipse 35" cx="10.242" cy="10.242" r="10.242" transform="translate(88.143 43.677)" fill="#303038" opacity="0.3"/>
    <circle id="Elipse_36" data-name="Elipse 36" cx="10.242" cy="10.242" r="10.242" transform="translate(95.184 72.483)" fill="#303038" opacity="0.53"/>
    <circle id="Elipse_37" data-name="Elipse 37" cx="8.642" cy="8.642" r="8.642" transform="translate(27.651 47.838)" fill="#454c56" stroke="#303038" stroke-miterlimit="10" stroke-width="5"/>
    <circle id="Elipse_38" data-name="Elipse 38" cx="4.161" cy="4.161" r="4.161" transform="translate(44.934 91.367)" fill="#454c56" stroke="#303038" stroke-miterlimit="10" stroke-width="5"/>
    <circle id="Elipse_39" data-name="Elipse 39" cx="4.161" cy="4.161" r="4.161" transform="translate(108.947 42.077)" fill="#454c56" stroke="#303038" stroke-miterlimit="10" stroke-width="5"/>
    <circle id="Elipse_40" data-name="Elipse 40" cx="5.121" cy="5.121" r="5.121" transform="translate(89.743 90.087)" fill="#454c56" stroke="#303038" stroke-miterlimit="10" stroke-width="5"/>
    <circle id="Elipse_41" data-name="Elipse 41" cx="3.841" cy="3.841" r="3.841" transform="translate(74.38 68.322)" fill="#454c56" stroke="#303038" stroke-miterlimit="10" stroke-width="5"/>
    <ellipse id="Elipse_42" data-name="Elipse 42" cx="6.401" cy="5.441" rx="6.401" ry="5.441" transform="translate(35.012 11.03)" fill="#454c56" stroke="#303038" stroke-miterlimit="10" stroke-width="5"/>
  </g>
  <path id="Trazado_24" data-name="Trazado 24" d="M1569.612,1134.075a53.408,53.408,0,0,1,12.852,26.28c5.434,31.241-18.717,62.327-55.887,75.276a57.038,57.038,0,1,0,43.035-101.556Z" transform="translate(-1500.024 -1127.857)" fill="#303038" opacity="0.23"/>
  <ellipse id="Elipse_43" data-name="Elipse 43" cx="24.005" cy="16.457" rx="24.005" ry="16.457" transform="translate(12.977 30.706) rotate(-32.358)" fill="#afb6bc" opacity="0.19"/>
  <ellipse id="Elipse_44" data-name="Elipse 44" cx="6.096" cy="6.207" rx="6.096" ry="6.207" transform="translate(10.827 60.041) rotate(-71.029)" fill="#afb6bc" opacity="0.19"/>
  <ellipse id="Elipse_45" data-name="Elipse 45" cx="12.15" cy="8.543" rx="12.15" ry="8.543" transform="translate(29.406 20.465) rotate(-22.535)" fill="#afb6bc" opacity="0.33"/>
  <path id="Trazado_25" data-name="Trazado 25" d="M1609.076,1156.568a46.578,46.578,0,0,1,7.62,18.481c5.566,31.995-23.9,64.169-66.8,74.424a57.045,57.045,0,0,0,59.18-92.9Z" transform="translate(-1504.686 -1132.355)" fill="#303038" opacity="0.52"/>
  <path id="Trazado_26" data-name="Trazado 26" d="M1547.9,1248.472a57.045,57.045,0,0,0,59.18-92.9" transform="translate(-1504.286 -1132.155)" fill="none" stroke="#afbbbc" stroke-miterlimit="10" stroke-width="3" opacity="0.44"/>
</svg>
