<svg id="Grupo_597" data-name="Grupo 597" xmlns="http://www.w3.org/2000/svg" width="168.497" height="166.866" viewBox="0 0 168.497 166.866">
  <g id="Grupo_595" data-name="Grupo 595" transform="translate(0)">
    <path id="Trazado_36" data-name="Trazado 36" d="M593.866,1986.81l65.684-1.344L597.3,1963.684l25.6-28.979-34.15,17.907-1.6-63.443-22.065,62.54-32.369-26.569,18.548,32.052-60.213,2.546,62.077,20.358-28.86,34.411,36.057-19.934,3.123,61.463,19.379-59.087,31.624,27.124Z" transform="translate(-491.053 -1889.168)" fill="#edbebe" opacity="0.43"/>
    <circle id="Elipse_91" data-name="Elipse 91" cx="37.431" cy="37.431" r="37.431" transform="translate(46.951 45.639)" fill="#edbebe" opacity="0.43"/>
    <circle id="Elipse_92" data-name="Elipse 92" cx="47.743" cy="47.743" r="47.743" transform="translate(36.117 35.468)" fill="#edbebe" opacity="0.27"/>
    <circle id="Elipse_93" data-name="Elipse 93" cx="62.257" cy="62.257" r="62.257" transform="translate(20.94 20.575)" fill="#edbebe" opacity="0.09"/>
  </g>
  <g id="Grupo_596" data-name="Grupo 596" transform="translate(19.323 18.283)">
    <path id="Trazado_37" data-name="Trazado 37" d="M566.269,2037.375l-2.5-57.022L511.224,1963.3l55.46-2.731,18.616-52.314,1.019,55.341,54.025,18.735L584,1983.866Z" transform="translate(-511.224 -1908.254)" fill="#f9dbcd"/>
    <path id="Trazado_38" data-name="Trazado 38" d="M537.532,2006.7l27.524-33-20.589-36.134,32.244,26.6,36.886-19.668-27.5,31.31,20.56,37.82-32.132-27.719Z" transform="translate(-512.331 -1909.487)" fill="#f9dbcd" opacity="0.72"/>
    <path id="Trazado_39" data-name="Trazado 39" d="M558.639,1991.226l14.064-16.86-10.52-18.463,16.476,13.594,18.848-10.05-14.05,16,10.506,19.325-16.419-14.164Z" transform="translate(-513.218 -1910.258)" fill="#fff" opacity="0.42"/>
    <path id="Trazado_40" data-name="Trazado 40" d="M575.019,1997.745l-.868-19.8-18.241-5.92,19.254-.948,6.463-18.161.354,19.212,18.755,6.5-19.562.533Z" transform="translate(-513.104 -1910.132)" fill="#fff" opacity="0.68"/>
  </g>
</svg>
