<svg id="Grupo_594" data-name="Grupo 594" xmlns="http://www.w3.org/2000/svg" width="199.416" height="196.38" viewBox="0 0 199.416 196.38">
  <g id="Grupo_592" data-name="Grupo 592" transform="translate(0)">
    <path id="Trazado_31" data-name="Trazado 31" d="M299.764,1774.09l70.652-42.378-81.323,15.071,9.816-47.49-26.014,40.762L231.635,1672l14.942,81.813-51.78-8.754,40.154,23.331L171,1808.668l80.245-16.512-9.975,55.43L268.1,1803.43l41.686,64.95L294.068,1792l51.315,9.822Z" transform="translate(-171 -1672)" fill="#eeefbf" opacity="0.43"/>
    <circle id="Elipse_88" data-name="Elipse 88" cx="46.94" cy="46.94" r="46.94" transform="translate(52.687 50.771)" fill="#eeefbf" opacity="0.43"/>
    <circle id="Elipse_89" data-name="Elipse 89" cx="59.872" cy="59.872" r="59.872" transform="translate(39.276 38.318)" fill="#eeefbf" opacity="0.27"/>
    <circle id="Elipse_90" data-name="Elipse 90" cx="78.073" cy="78.073" r="78.073" transform="translate(20.117 20.117)" fill="#eeefbf" opacity="0.09"/>
  </g>
  <g id="Grupo_593" data-name="Grupo 593" transform="translate(22.749 21.581)">
    <path id="Trazado_32" data-name="Trazado 32" d="M300.8,1846.917l-38.242-60.5-67.812,14.169,58.661-37.519-12.326-68.534,35.582,59.6,70.471-13.262-60.372,36.772Z" transform="translate(-194.748 -1694.529)" fill="#fcfccd"/>
    <path id="Trazado_33" data-name="Trazado 33" d="M249.244,1831.711l9.4-53.058-44.917-26.5,51.666,8.87,27.895-44.384-10.423,51.2L328.8,1796.2l-52.239-10.154Z" transform="translate(-195.546 -1695.458)" fill="#fcfccd" opacity="0.72"/>
    <path id="Trazado_34" data-name="Trazado 34" d="M262.414,1802.574l4.8-27.111-22.951-13.542,26.4,4.532,14.253-22.679-5.326,26.164,23.472,14.489-26.693-5.188Z" transform="translate(-196.83 -1696.599)" fill="#fff" opacity="0.42"/>
    <path id="Trazado_35" data-name="Trazado 35" d="M284.655,1799.656l-13.276-21-23.541,4.919,20.365-13.025-4.279-23.792,12.353,20.69,24.465-4.6L279.782,1775.6Z" transform="translate(-196.98 -1696.724)" fill="#fff" opacity="0.68"/>
  </g>
</svg>
