<svg id="Grupo_600" data-name="Grupo 600" xmlns="http://www.w3.org/2000/svg" width="136.693" height="134.914" viewBox="0 0 136.693 134.914">
  <g id="Grupo_598" data-name="Grupo 598" transform="translate(0 0)">
    <path id="Trazado_41" data-name="Trazado 41" d="M903.632,1829.375,954,1811.483l-53.653-.843L912.68,1781.7l-21.772,22.588-17.514-48.572-.988,53.947L840.6,1797.451l22.545,19.987-45.836,17.416,53.151-.211-13.452,33.973,22.723-24.642,18.183,46.652-.2-50.592,31.376,12.827Z" transform="translate(-817.306 -1755.712)" fill="#beede5" opacity="0.43"/>
    <circle id="Elipse_94" data-name="Elipse 94" cx="30.453" cy="30.453" r="30.453" transform="translate(37.903 36.689)" fill="#beede5" opacity="0.43"/>
    <circle id="Elipse_95" data-name="Elipse 95" cx="38.844" cy="38.844" r="38.844" transform="translate(29.147 28.542)" fill="#beede5" opacity="0.27"/>
    <circle id="Elipse_96" data-name="Elipse 96" cx="50.652" cy="50.652" r="50.652" transform="translate(16.729 16.61)" fill="#beede5" opacity="0.09"/>
  </g>
  <g id="Grupo_599" data-name="Grupo 599" transform="translate(15.627 14.809)">
    <path id="Trazado_42" data-name="Trazado 42" d="M895.125,1875.744l-16.562-43.384-44.944.316,42.119-16.339.949-45.167,14.987,42.466,46.519.6-43.111,15.644Z" transform="translate(-833.619 -1771.17)" fill="#cdf9eb"/>
    <path id="Trazado_43" data-name="Trazado 43" d="M864.683,1859.649l12.784-32.538L852.3,1804.5l31.721,12.266,23.432-24.65-13.195,31.228,25.578,23.924-31.921-13.156Z" transform="translate(-834.405 -1772.051)" fill="#cdf9eb" opacity="0.72"/>
    <path id="Trazado_44" data-name="Trazado 44" d="M876.892,1842.588l6.532-16.626-12.86-11.555,16.209,6.268,11.973-12.6L892,1824.036l13.07,12.225-16.311-6.722Z" transform="translate(-835.173 -1772.722)" fill="#fff" opacity="0.42"/>
    <path id="Trazado_45" data-name="Trazado 45" d="M891.307,1843.446l-5.75-15.061-15.6.11,14.622-5.672.33-15.68,5.2,14.742,16.149.209-14.966,5.431Z" transform="translate(-835.147 -1772.683)" fill="#fff" opacity="0.68"/>
  </g>
</svg>
