<svg id="Grupo_606" data-name="Grupo 606" xmlns="http://www.w3.org/2000/svg" width="168.012" height="165.826" viewBox="0 0 168.012 165.826">
  <g id="Grupo_604" data-name="Grupo 604">
    <path id="Trazado_51" data-name="Trazado 51" d="M1500.411,1946.253l61.908-21.991-65.945-1.036,15.158-35.575-26.76,27.763-21.526-59.7-1.215,66.308-39.1-15,27.71,24.567-56.337,21.406,65.329-.26-16.534,41.757,27.93-30.288,22.349,57.341-.245-62.184,38.564,15.766Z" transform="translate(-1394.307 -1855.712)" fill="#c9beed" opacity="0.43"/>
    <circle id="Elipse_100" data-name="Elipse 100" cx="37.431" cy="37.431" r="37.431" transform="translate(46.587 45.095)" fill="#c9beed" opacity="0.43"/>
    <circle id="Elipse_101" data-name="Elipse 101" cx="47.743" cy="47.743" r="47.743" transform="translate(35.825 35.081)" fill="#c9beed" opacity="0.27"/>
    <circle id="Elipse_102" data-name="Elipse 102" cx="62.257" cy="62.257" r="62.257" transform="translate(20.562 20.416)" fill="#c9beed" opacity="0.09"/>
  </g>
  <g id="Grupo_605" data-name="Grupo 605" transform="translate(19.207 18.202)">
    <path id="Trazado_52" data-name="Trazado 52" d="M1489.954,2003.246l-20.357-53.324-55.241.388,51.769-20.083,1.167-55.515,18.421,52.2,57.177.74-52.988,19.229Z" transform="translate(-1414.356 -1874.712)" fill="#e6cdf9"/>
    <path id="Trazado_53" data-name="Trazado 53" d="M1452.537,1983.463l15.713-39.993-30.934-27.8,38.989,15.077,28.8-30.3-16.218,38.384,31.439,29.406-39.234-16.171Z" transform="translate(-1415.322 -1875.795)" fill="#e6cdf9" opacity="0.72"/>
    <path id="Trazado_54" data-name="Trazado 54" d="M1467.544,1962.493l8.029-20.436-15.807-14.2,19.922,7.7,14.716-15.481-8.287,19.613,16.065,15.026-20.048-8.263Z" transform="translate(-1416.266 -1876.62)" fill="#fff" opacity="0.42"/>
    <path id="Trazado_55" data-name="Trazado 55" d="M1485.261,1963.548l-7.067-18.512-19.177.135,17.972-6.972.405-19.273,6.4,18.12,19.849.257-18.4,6.676Z" transform="translate(-1416.234 -1876.572)" fill="#fff" opacity="0.68"/>
  </g>
</svg>
