<svg id="Grupo_603" data-name="Grupo 603" xmlns="http://www.w3.org/2000/svg" width="136.693" height="134.914" viewBox="0 0 136.693 134.914">
  <g id="Grupo_601" data-name="Grupo 601">
    <path id="Trazado_46" data-name="Trazado 46" d="M1261.632,1750.375,1312,1732.483l-53.653-.843,12.333-28.944-21.772,22.588-17.514-48.572-.988,53.947-31.809-12.208,22.545,19.987-45.836,17.416,53.151-.211-13.452,33.973,22.723-24.642,18.183,46.652-.2-50.592,31.376,12.827Z" transform="translate(-1175.306 -1676.712)" fill="#eeefbf" opacity="0.43"/>
    <circle id="Elipse_97" data-name="Elipse 97" cx="30.453" cy="30.453" r="30.453" transform="translate(37.903 36.689)" fill="#eeefbf" opacity="0.43"/>
    <circle id="Elipse_98" data-name="Elipse 98" cx="38.844" cy="38.844" r="38.844" transform="translate(29.147 28.542)" fill="#eeefbf" opacity="0.27"/>
    <circle id="Elipse_99" data-name="Elipse 99" cx="50.652" cy="50.652" r="50.652" transform="translate(16.729 16.61)" fill="#eeefbf" opacity="0.09"/>
  </g>
  <g id="Grupo_602" data-name="Grupo 602" transform="translate(15.627 14.809)">
    <path id="Trazado_47" data-name="Trazado 47" d="M1253.125,1796.744l-16.562-43.384-44.944.316,42.119-16.339.949-45.167,14.987,42.466,46.519.6-43.111,15.644Z" transform="translate(-1191.619 -1692.17)" fill="#fcfccd"/>
    <path id="Trazado_48" data-name="Trazado 48" d="M1222.683,1780.649l12.784-32.538L1210.3,1725.5l31.721,12.266,23.432-24.65-13.195,31.228,25.578,23.924-31.921-13.156Z" transform="translate(-1192.405 -1693.051)" fill="#fcfccd" opacity="0.72"/>
    <path id="Trazado_49" data-name="Trazado 49" d="M1234.892,1763.588l6.532-16.626-12.86-11.556,16.209,6.268,11.973-12.6L1250,1745.036l13.07,12.225-16.311-6.723Z" transform="translate(-1193.173 -1693.722)" fill="#fff" opacity="0.42"/>
    <path id="Trazado_50" data-name="Trazado 50" d="M1249.307,1764.447l-5.75-15.061-15.6.11,14.622-5.672.33-15.68,5.2,14.742,16.149.209-14.966,5.431Z" transform="translate(-1193.147 -1693.683)" fill="#fff" opacity="0.68"/>
  </g>
</svg>
