<svg xmlns="http://www.w3.org/2000/svg" width="77.839" height="77.839" viewBox="0 0 77.839 77.839">
  <g id="tumblr" transform="translate(1 1)">
    <path id="Trazado_109" data-name="Trazado 109" d="M177.92,50a37.92,37.92,0,1,0,37.92,37.92A37.917,37.917,0,0,0,177.92,50Zm6.458,66.211c-12.324.207-16.99-8.784-16.99-15.109V82.6h-5.732V75.3c8.591-3.1,10.65-10.843,11.139-15.257a.455.455,0,0,1,.415-.43h8.28V74.026h11.331v8.562H181.46V100.2c.03,2.4.918,5.7,5.451,5.569a13.448,13.448,0,0,0,4.562-.978l2.725,8.073c-1.037,1.526-5.658,3.274-9.821,3.348Zm-1.57-6.873" transform="translate(-140 -50)" fill="none" stroke="#dabb92" stroke-linecap="round" stroke-linejoin="round" stroke-miterlimit="10" stroke-width="2"/>
  </g>
</svg>
