<svg xmlns="http://www.w3.org/2000/svg" width="77.839" height="77.839" viewBox="0 0 77.839 77.839">
  <g id="twt" transform="translate(1 1)">
    <path id="Trazado_110" data-name="Trazado 110" d="M177.92,50a37.92,37.92,0,1,0,37.92,37.92A37.917,37.917,0,0,0,177.92,50Zm21.967,30.232c.015.459.03.9.03,1.363,0,13.938-10.606,30.01-30.01,30.01h0a29.882,29.882,0,0,1-16.175-4.74,20.168,20.168,0,0,0,2.518.148,21.188,21.188,0,0,0,13.109-4.518,10.549,10.549,0,0,1-9.85-7.332,10.517,10.517,0,0,0,4.77-.178,10.539,10.539,0,0,1-8.458-10.339v-.133a10.637,10.637,0,0,0,4.784,1.318,10.575,10.575,0,0,1-3.274-14.087,29.949,29.949,0,0,0,21.744,11.02,10.741,10.741,0,0,1-.281-2.4,10.553,10.553,0,0,1,18.249-7.214,20.941,20.941,0,0,0,6.7-2.563,10.576,10.576,0,0,1-4.636,5.836,20.86,20.86,0,0,0,6.058-1.659,21.771,21.771,0,0,1-5.273,5.466Zm-4.651-.667" transform="translate(-140 -50)" fill="none" stroke="#dabb92" stroke-linecap="round" stroke-linejoin="round" stroke-miterlimit="10" stroke-width="2"/>
  </g>
</svg>
